<?xml version="1.0" ?><!DOCTYPE svg  PUBLIC '-//W3C//DTD SVG 1.1//EN'  'http://www.w3.org/Graphics/SVG/1.1/DTD/svg11.dtd'><svg enable-background="new 0 0 150 150" height="150px" id="Layer_1" version="1.1" viewBox="0 0 150 150" width="150px" xml:space="preserve" xmlns="http://www.w3.org/2000/svg" xmlns:xlink="http://www.w3.org/1999/xlink"><g><circle cx="75.007" cy="75" fill="#00AEEF" opacity="0.1" r="75"/><path d="M75.007,0v150c41.422,0,75-33.578,75-75C150.007,33.579,116.429,0,75.007,0z" fill="#00AEEF" opacity="0.1"/><circle cx="75.007" cy="75" fill="#00AEEF" r="65.488"/><path d="M75.007,9.513v130.976c36.168,0,65.488-29.32,65.488-65.488C140.495,38.833,111.175,9.513,75.007,9.513z" fill="#00A1DE"/><g><path d="M9.593,72.074C9.55,73.044,9.519,74.019,9.519,75c0,36.168,29.32,65.488,65.488,65.488v-5.853    C39.819,134.636,11.126,106.883,9.593,72.074z" fill="#00A1DE"/><path d="M140.421,72.074c-1.531,34.809-30.227,62.562-65.414,62.562v5.853c36.168,0,65.488-29.32,65.488-65.488    C140.495,74.019,140.464,73.044,140.421,72.074z" fill="#0097D0"/></g></g><path d="M117.381,48.711c-3.118,1.383-6.472,2.318-9.988,2.739c3.589-2.154,6.347-5.562,7.646-9.622  c-3.361,1.992-7.082,3.44-11.043,4.219c-3.173-3.38-7.692-5.491-12.696-5.491c-7.488,0-13.854,4.745-16.303,11.384  c-0.69,1.875-1.086,3.892-1.086,6.007c0,1.362,0.152,2.69,0.449,3.963c-14.453-0.726-27.268-7.649-35.846-18.171  c-1.496,2.57-2.355,5.556-2.355,8.744c0,6.034,3.071,11.357,7.737,14.475c-2.851-0.089-5.531-0.873-7.876-2.175  c-0.002,0.072-0.002,0.146-0.002,0.219c0,8.425,5.994,15.453,13.95,17.053c-1.46,0.397-2.996,0.609-4.582,0.609  c-1.12,0-2.21-0.108-3.271-0.311c2.214,6.907,8.636,11.936,16.247,12.075c-5.953,4.664-13.451,7.444-21.6,7.444  c-1.404,0-2.789-0.082-4.149-0.242c7.696,4.934,16.839,7.814,26.659,7.814c5.713,0,10.954-0.858,15.725-2.377  c21.943-6.989,33.755-28.227,33.755-47.104c0-0.754-0.017-1.504-0.05-2.25C112.102,55.262,115.05,52.199,117.381,48.711z" fill="#FFFFFF"/></svg>