<?xml version="1.0" ?><!DOCTYPE svg  PUBLIC '-//W3C//DTD SVG 1.1//EN'  'http://www.w3.org/Graphics/SVG/1.1/DTD/svg11.dtd'><svg enable-background="new 0 0 150 150" height="150px" id="Layer_1" version="1.1" viewBox="0 0 150 150" width="150px" xml:space="preserve" xmlns="http://www.w3.org/2000/svg" xmlns:xlink="http://www.w3.org/1999/xlink"><g><circle cx="74.992" cy="75" fill="#007BB6" opacity="0.1" r="75"/><path d="M74.992,0v150c41.42,0,75-33.579,75-75C149.992,33.579,116.412,0,74.992,0z" fill="#007BB6" opacity="0.1"/><circle cx="74.992" cy="75" fill="#007BB6" r="65.488"/><path d="M74.992,9.512v130.975c36.168,0,65.487-29.319,65.487-65.488C140.479,38.832,111.16,9.512,74.992,9.512z" fill="#0073AA"/><g><path d="M9.577,72.073C9.535,73.044,9.504,74.019,9.504,75c0,36.168,29.32,65.488,65.488,65.488v-5.852    C39.805,134.636,11.109,106.882,9.577,72.073z" fill="#0073AA"/><path d="M140.406,72.073c-1.533,34.809-30.228,62.562-65.414,62.562v5.852c36.168,0,65.487-29.319,65.487-65.488    C140.479,74.019,140.449,73.044,140.406,72.073z" fill="#006B9E"/></g></g><path d="M107.935,36.33H42.031c-3.151,0-5.71,2.498-5.71,5.572v66.188c0,3.08,2.559,5.581,5.71,5.581h65.903  c3.154,0,5.729-2.501,5.729-5.581V41.902C113.663,38.827,111.089,36.33,107.935,36.33z M59.26,102.234H47.783V65.326H59.26V102.234z   M53.522,60.28c-3.678,0-6.65-2.979-6.65-6.653c0-3.669,2.973-6.648,6.65-6.648c3.666,0,6.646,2.979,6.646,6.648  C60.169,57.3,57.188,60.28,53.522,60.28z M102.224,102.234H90.765V84.287c0-4.283-0.084-9.789-5.963-9.789  c-5.969,0-6.881,4.664-6.881,9.477v18.259H66.454V65.326h11.005v5.041h0.157c1.532-2.9,5.272-5.961,10.854-5.961  c11.608,0,13.753,7.642,13.753,17.585V102.234z" fill="#FFFFFF"/></svg>