<?xml version="1.0" ?><!DOCTYPE svg  PUBLIC '-//W3C//DTD SVG 1.1//EN'  'http://www.w3.org/Graphics/SVG/1.1/DTD/svg11.dtd'><svg enable-background="new 0 0 150 150" height="150px" id="Layer_1" version="1.1" viewBox="0 0 150 150" width="150px" xml:space="preserve" xmlns="http://www.w3.org/2000/svg" xmlns:xlink="http://www.w3.org/1999/xlink"><g><circle cx="75.009" cy="75.013" fill="#60C3AD" opacity="0.15" r="75"/><path d="M75.009,0.013v150c41.42,0,74.998-33.579,74.998-75.001   C150.007,33.591,116.429,0.013,75.009,0.013z" fill="#60C3AD" opacity="0.15"/><circle cx="75.009" cy="75.012" fill="#60C3AD" r="65.488"/><path d="M75.009,9.524V140.5c36.166,0,65.486-29.319,65.486-65.488C140.495,38.845,111.175,9.524,75.009,9.524z" fill="#59B7A3"/><g><path d="M9.593,72.085c-0.041,0.971-0.072,1.945-0.072,2.927c0,36.169,29.318,65.488,65.488,65.488v-5.853    C39.821,134.647,11.126,106.895,9.593,72.085z" fill="#59B7A3"/><path d="M140.423,72.085c-1.533,34.81-30.229,62.562-65.414,62.562v5.853c36.166,0,65.486-29.319,65.486-65.488    C140.495,74.03,140.466,73.056,140.423,72.085z" fill="#54AC99"/></g></g><path d="M74.996,73.848c-6.655,0-40.949-21.637-40.949-21.637v-2.035c0-3.761,3.056-6.816,6.824-6.816h68.25  c3.771,0,6.826,3.056,6.826,6.816l-0.053,2.408C115.895,52.584,81.973,73.848,74.996,73.848z M74.996,79.22  c7.297,0,40.898-20.412,40.898-20.412l0.053,41.896c0,3.761-3.055,6.816-6.826,6.816h-68.25c-3.766,0-6.824-3.056-6.824-6.816  l0.055-41.896C34.1,58.808,68.341,79.22,74.996,79.22z" fill="#FFFFFF"/></svg>