<?xml version="1.0" ?><!DOCTYPE svg  PUBLIC '-//W3C//DTD SVG 1.1//EN'  'http://www.w3.org/Graphics/SVG/1.1/DTD/svg11.dtd'><svg enable-background="new 0 0 150 150" height="150px" id="Layer_1" version="1.1" viewBox="0 0 150 150" width="150px" xml:space="preserve" xmlns="http://www.w3.org/2000/svg" xmlns:xlink="http://www.w3.org/1999/xlink"><g><circle cx="74.987" cy="75.042" fill="#414042" opacity="0.1" r="75"/><path d="M74.987,0.042v150c41.42,0,75-33.579,75-75.001C149.987,33.621,116.407,0.042,74.987,0.042z" fill="#414042" opacity="0.1"/><circle cx="74.987" cy="75.042" fill="#3D3D3E" r="65.487"/><path d="M74.987,9.555v130.975c36.168,0,65.488-29.319,65.488-65.488C140.476,38.874,111.155,9.555,74.987,9.555z" fill="#282829"/><g><path d="M9.573,72.115c-0.043,0.971-0.074,1.945-0.074,2.926c0,36.169,29.32,65.488,65.488,65.488v-5.852    C39.8,134.678,11.104,106.924,9.573,72.115z" fill="#282829"/><path d="M140.401,72.115c-1.533,34.809-30.227,62.562-65.414,62.562v5.852c36.168,0,65.488-29.319,65.488-65.488    C140.476,74.061,140.444,73.086,140.401,72.115z"/></g></g><path d="M100.564,32.907c1.418,3.233,2.342,8.598,0.969,12.528c5.628,4.804,7.325,14.621,4.843,26.02  c-2.001,9.187-11.564,13.478-21.551,14.21c1.073,2.337,3.13,3.229,3.634,6.987c0.746,5.616-1.173,13.842,0.724,17.583  c0.904,1.793,2.389,1.845,3.392,3.373c-2.451,2.899-8.511-0.322-9.206-3.373c-1.182-5.224,1.803-13.323-1.453-16.86  c0.229,5.695-1.343,13.697,0.245,18.789c0.626,1.999,2.433,2.773,1.936,4.579c-11.369,1.154-6.621-14.723-8.479-24.091  c-1.709,0.123-0.961,2.569-0.965,3.615c-0.05,9.15,1.867,21.699-7.991,20.476c-0.293-1.923,1.323-2.58,1.934-4.336  c1.802-5.149-0.337-12.821,0.49-19.032c-3.767,2.835,0.398,12.746-1.937,17.824c-1.346,2.919-5.676,4.194-8.96,2.892  c0.429-2.182,2.678-1.828,3.625-3.855c1.335-2.829,0.016-6.901,0.49-11.082c-6.968,1.391-12.373-0.2-15.017-4.576  c-1.183-1.963-1.479-4.277-2.908-6.022c-1.423-1.74-3.694-1.973-4.356-4.33c8.629-2.08,8.963,8.877,16.711,9.15  c2.374,0.085,3.613-0.691,5.81-1.204c0.613-2.763,1.935-4.824,3.876-6.269c-9.642-1.321-20.054-4.944-22.764-14.206  c-2.71-9.264-1.658-20.59,3.874-25.297c-1.563-3.948-1.076-10.414,0.971-13.492c6.176,0.28,9.922,2.972,13.804,5.543  c4.814-1.369,9.874-2.05,16.468-1.686c2.774,0.153,5.655,1.396,7.748,1.199c2.047-0.19,4.309-2.489,6.291-3.368  C95.409,33.454,97.599,33.018,100.564,32.907L100.564,32.907z" fill="#FFFFFF"/></svg>