<?xml version="1.0" encoding="iso-8859-1"?>
<!-- Generator: Adobe Illustrator 18.1.1, SVG Export Plug-In . SVG Version: 6.00 Build 0)  -->
<svg version="1.1" id="Capa_1" xmlns="http://www.w3.org/2000/svg" xmlns:xlink="http://www.w3.org/1999/xlink" x="0px" y="0px"
	 viewBox="0 0 18 18" style="enable-background:new 0 0 18 18;" xml:space="preserve">
<g>
	<g id="Layer_1_66_">
		<g>
			<path style="fill:#030104;" d="M9,18c-4.963,0-9-4.038-9-9s4.037-9,9-9s9,4.038,9,9S13.963,18,9,18z M9,2C5.141,2,2,5.14,2,9
				s3.141,7,7,7s7-3.14,7-7S12.859,2,9,2z"/>
		</g>
		<g>
			<g>
				<path style="fill:#030104;" d="M10.565,9.626c0.171,0,0.316,0.084,0.441,0.255c0.124,0.169,0.187,0.378,0.187,0.625
					c0,0.248-0.062,0.457-0.187,0.626c-0.125,0.169-0.271,0.254-0.441,0.254c-0.181,0-0.337-0.084-0.461-0.254
					c-0.124-0.169-0.187-0.378-0.187-0.626s0.062-0.456,0.187-0.625C10.229,9.71,10.385,9.626,10.565,9.626 M12.775,7.337
					C13.257,7.859,13.5,8.492,13.5,9.235c0,0.482-0.057,0.915-0.166,1.301c-0.111,0.384-0.252,0.698-0.42,0.939
					c-0.171,0.242-0.378,0.454-0.627,0.635c-0.249,0.184-0.478,0.316-0.685,0.401c-0.208,0.085-0.446,0.15-0.716,0.196
					c-0.266,0.047-0.467,0.072-0.606,0.079c-0.135,0.006-0.282,0.009-0.44,0.009c-0.035,0-0.155,0.004-0.352,0.01
					C9.295,12.813,9.129,12.816,9,12.816s-0.295-0.003-0.488-0.011c-0.196-0.006-0.316-0.01-0.352-0.01
					c-0.158,0-0.306-0.002-0.44-0.009c-0.14-0.007-0.341-0.032-0.606-0.079c-0.271-0.045-0.508-0.11-0.716-0.196
					c-0.207-0.084-0.436-0.217-0.684-0.401c-0.25-0.182-0.457-0.394-0.628-0.635c-0.168-0.241-0.309-0.555-0.42-0.939
					C4.557,10.15,4.5,9.717,4.5,9.235c0-0.743,0.242-1.376,0.725-1.898C5.172,7.311,5.169,7.051,5.217,6.555
					c0.043-0.496,0.148-0.953,0.319-1.37c0.602,0.064,1.343,0.404,2.23,1.017c0.3-0.078,0.71-0.118,1.233-0.118
					c0.549,0,0.959,0.04,1.234,0.118c0.404-0.273,0.791-0.496,1.16-0.666c0.374-0.168,0.644-0.267,0.814-0.293l0.254-0.058
					c0.172,0.417,0.277,0.875,0.32,1.37C12.831,7.051,12.828,7.311,12.775,7.337 M9.021,12.364c1.083,0,1.899-0.129,2.454-0.39
					c0.553-0.26,0.833-0.796,0.833-1.605c0-0.469-0.176-0.861-0.529-1.174c-0.181-0.17-0.394-0.273-0.638-0.313
					c-0.238-0.039-0.607-0.039-1.104,0C9.542,8.922,9.203,8.94,9.021,8.94c-0.248,0-0.517-0.013-0.851-0.039
					C7.836,8.876,7.574,8.86,7.387,8.852C7.196,8.846,6.992,8.87,6.771,8.921c-0.223,0.053-0.404,0.143-0.55,0.273
					c-0.336,0.3-0.507,0.691-0.507,1.174c0,0.809,0.274,1.345,0.821,1.605c0.547,0.261,1.361,0.39,2.444,0.39 M7.455,9.626
					c0.17,0,0.316,0.084,0.44,0.255c0.124,0.169,0.187,0.378,0.187,0.625c0,0.248-0.062,0.457-0.187,0.626
					c-0.124,0.169-0.271,0.254-0.44,0.254c-0.182,0-0.337-0.084-0.462-0.254c-0.124-0.169-0.187-0.378-0.187-0.626
					s0.062-0.456,0.187-0.625C7.118,9.71,7.273,9.626,7.455,9.626"/>
			</g>
		</g>
	</g>
</g>
<g>
</g>
<g>
</g>
<g>
</g>
<g>
</g>
<g>
</g>
<g>
</g>
<g>
</g>
<g>
</g>
<g>
</g>
<g>
</g>
<g>
</g>
<g>
</g>
<g>
</g>
<g>
</g>
<g>
</g>
</svg>
